<mxfile host="app.diagrams.net" modified="2023-02-27T18:04:32.265Z" agent="5.0 (X11; Linux x86_64) AppleWebKit/537.36 (KHTML, like Gecko) Chrome/110.0.0.0 Safari/537.36" etag="OUU2FmwF30sYS7rxZOtC" version="20.8.23" type="github">
  <diagram name="Page-1" id="ZoDXqYxDLUc-ZoWLwzIm">
    <mxGraphModel dx="806" dy="463" grid="1" gridSize="10" guides="1" tooltips="1" connect="1" arrows="1" fold="1" page="1" pageScale="1" pageWidth="850" pageHeight="1100" math="0" shadow="0">
      <root>
        <mxCell id="0" />
        <mxCell id="1" parent="0" />
        <mxCell id="Cl9s36z-qjGOzpn_mO-P-1" value="" style="rounded=0;whiteSpace=wrap;html=1;" vertex="1" parent="1">
          <mxGeometry x="90" y="210" width="380" height="60" as="geometry" />
        </mxCell>
        <mxCell id="Cl9s36z-qjGOzpn_mO-P-2" value="" style="strokeWidth=2;html=1;shape=mxgraph.flowchart.annotation_2;align=left;labelPosition=right;pointerEvents=1;direction=west;" vertex="1" parent="1">
          <mxGeometry x="470" y="200" width="50" height="100" as="geometry" />
        </mxCell>
        <mxCell id="Cl9s36z-qjGOzpn_mO-P-3" value="samuel" style="text;html=1;align=center;verticalAlign=middle;resizable=0;points=[];autosize=1;strokeColor=none;fillColor=none;" vertex="1" parent="1">
          <mxGeometry x="500" y="215" width="60" height="30" as="geometry" />
        </mxCell>
        <mxCell id="Cl9s36z-qjGOzpn_mO-P-4" value="" style="strokeWidth=2;html=1;shape=mxgraph.flowchart.annotation_2;align=left;labelPosition=right;pointerEvents=1;" vertex="1" parent="1">
          <mxGeometry x="40" y="200" width="50" height="100" as="geometry" />
        </mxCell>
      </root>
    </mxGraphModel>
  </diagram>
</mxfile>
